HIERARCHY
ROOT joint_Root
{
	OFFSET 0.0 0.0 0.0
	CHANNELS 6 Xposition Yposition Zposition Zrotation Xrotation Yrotation 
	JOINT Hips
	{
		OFFSET -0.726466 93.3139 -2.00062
		CHANNELS 6 Xposition Yposition Zposition Zrotation Xrotation Yrotation 
		JOINT Spine
		{
			OFFSET 15.7357 0.0 0.0
			CHANNELS 6 Xposition Yposition Zposition Zrotation Xrotation Yrotation 
			JOINT Chest
			{
				OFFSET 8.98455 -0.406207 0.0
				CHANNELS 6 Xposition Yposition Zposition Zrotation Xrotation Yrotation 
				JOINT Neck
				{
					OFFSET 16.3773 0.0 0.0
					CHANNELS 6 Xposition Yposition Zposition Zrotation Xrotation Yrotation 
					JOINT Head
					{
						OFFSET 6.45672 0.0 0.0
						CHANNELS 6 Xposition Yposition Zposition Zrotation Xrotation Yrotation 
						End Site
						{
							OFFSET 0.0 0.0 0.0
						}
					}
				}
				JOINT Shoulder_L
				{
					OFFSET 12.9942 -0.242716 4.98039
					CHANNELS 6 Xposition Yposition Zposition Zrotation Xrotation Yrotation 
					JOINT UpperArm_L
					{
						OFFSET 5.34809 0.0 0.0
						CHANNELS 6 Xposition Yposition Zposition Zrotation Xrotation Yrotation 
						JOINT LowerArm_L
						{
							OFFSET 24.3286 1.87007e-05 0.0
							CHANNELS 6 Xposition Yposition Zposition Zrotation Xrotation Yrotation 
							JOINT Hand_L
							{
								OFFSET 22.2916 0.0 0.0
								CHANNELS 6 Xposition Yposition Zposition Zrotation Xrotation Yrotation 
								End Site
								{
									OFFSET 0.0 0.0 0.0
								}
							}
						}
					}
				}
				JOINT Shoulder_R
				{
					OFFSET 12.9945 -0.242716 -4.98039
					CHANNELS 6 Xposition Yposition Zposition Zrotation Xrotation Yrotation 
					JOINT UpperArm_R
					{
						OFFSET -5.34813 0.0 0.0
						CHANNELS 6 Xposition Yposition Zposition Zrotation Xrotation Yrotation 
						JOINT LowerArm_R
						{
							OFFSET -24.3289 0.000322201 0.0
							CHANNELS 6 Xposition Yposition Zposition Zrotation Xrotation Yrotation 
							JOINT Hand_R
							{
								OFFSET -22.2915 -0.000108084 0.0
								CHANNELS 6 Xposition Yposition Zposition Zrotation Xrotation Yrotation 
								End Site
								{
									OFFSET 0.0 0.0 0.0
								}
							}
						}
					}
				}
			}
		}
		JOINT UpperLeg_L
		{
			OFFSET -2.19248 -6.46944 0.0
			CHANNELS 6 Xposition Yposition Zposition Zrotation Xrotation Yrotation 
			JOINT LowerLeg_L
			{
				OFFSET 39.0811 0.0 -1.23785e-05
				CHANNELS 6 Xposition Yposition Zposition Zrotation Xrotation Yrotation 
				JOINT Foot_L
				{
					OFFSET 40.9854 0.0 -1.26872e-05
					CHANNELS 6 Xposition Yposition Zposition Zrotation Xrotation Yrotation 
					JOINT Toes_L
					{
						OFFSET 11.7543 0.0 0.0
						CHANNELS 6 Xposition Yposition Zposition Zrotation Xrotation Yrotation 
						End Site
						{
							OFFSET 0.0 0.0 0.0
						}
					}
				}
			}
		}
		JOINT UpperLeg_R
		{
			OFFSET -2.19251 6.46944 0.0
			CHANNELS 6 Xposition Yposition Zposition Zrotation Xrotation Yrotation 
			JOINT LowerLeg_R
			{
				OFFSET -39.0811 -0.00228153 -0.0401928
				CHANNELS 6 Xposition Yposition Zposition Zrotation Xrotation Yrotation 
				JOINT Foot_R
				{
					OFFSET -40.9854 0.0 0.0
					CHANNELS 6 Xposition Yposition Zposition Zrotation Xrotation Yrotation 
					JOINT Toes_R
					{
						OFFSET -11.7543 0.0 0.0
						CHANNELS 6 Xposition Yposition Zposition Zrotation Xrotation Yrotation 
						End Site
						{
							OFFSET 0.0 0.0 0.0
						}
					}
				}
			}
		}
	}
}
MOTION
Frames:	4
Frame Time:	0.0333333
0.000000 0.000000 0.000000 0.000000 0.000000 -0.000000 -0.900049 92.311200 -1.354690 88.158600 -1.030820 3.761460 15.735700 0.000005 -0.000001 83.392800 85.312100 -82.628200 8.984550 -0.406207 -0.000000 1.555710 -1.119640 1.542970 16.377300 -0.000001 -0.000001 2.335630 -2.460420 -0.034970 6.456720 -0.000001 -0.000000 3.981690 -2.794820 -1.607330 12.994200 -0.242716 4.980390 -90.261900 0.866781 -73.190100 5.348090 -0.000007 -0.000001 -66.761000 39.614600 -16.197700 24.328600 0.000019 0.000005 0.146243 0.350512 -22.643300 22.291600 -0.000001 0.000005 4.179010 5.501670 -6.605580 12.994500 -0.242716 -4.980390 88.110100 6.290270 -73.239800 -5.348130 -0.000001 -0.000004 -64.501500 41.919300 -16.637700 -24.328900 0.000322 -0.000009 1.982640 6.827940 -16.242400 -22.291500 -0.000108 -0.000004 8.081910 5.432630 -4.029530 -2.192480 -6.469440 -0.000000 -175.648000 -6.128010 -2.932460 39.081100 -0.000007 -0.000012 -0.099392 0.236763 22.772500 40.985400 -0.000006 -0.000013 -0.210917 3.569630 -66.290000 11.754300 -0.000000 0.000003 -0.000027 -0.000327 -16.590300 -2.192510 6.469440 -0.000001 179.935000 13.636300 -179.874000 -39.081100 -0.002282 -0.040193 -0.014370 0.050649 19.255800 -40.985400 0.000008 0.000006 4.245560 6.787670 -66.229700 -11.754300 -0.000006 -0.000006 -0.005856 -0.069518 -19.402300
0.000000 0.000000 0.000000 0.000000 0.000000 -0.000000 -0.905268 92.304000 -1.386120 88.174400 -0.928978 3.871370 15.735700 0.000005 -0.000001 83.365200 85.273100 -82.558800 8.984550 -0.406207 -0.000000 1.633300 -1.134850 1.627570 16.377300 -0.000001 -0.000001 2.322370 -2.484250 -0.003383 6.456720 -0.000001 -0.000000 4.025150 -2.730860 -1.722920 12.994200 -0.242716 4.980390 -90.395000 1.317730 -73.312600 5.348090 -0.000007 -0.000001 -65.628400 38.082900 -16.863900 24.328600 0.000019 0.000005 -0.044596 -0.102799 -23.398700 22.291600 -0.000001 0.000005 3.180890 5.534050 -7.979350 12.994500 -0.242716 -4.980390 88.144100 6.182500 -73.254500 -5.348130 -0.000001 -0.000004 -64.597700 41.812400 -16.616000 -24.328900 0.000322 -0.000009 1.991490 6.885450 -16.182600 -22.291500 -0.000108 -0.000004 8.065170 5.432350 -4.019910 -2.192480 -6.469440 -0.000000 -175.655000 -6.073630 -2.893990 39.081100 -0.000007 -0.000012 -0.098476 0.233847 22.836800 40.985400 -0.000006 -0.000013 -0.199233 3.617600 -66.289400 11.754300 -0.000000 0.000003 -0.000022 -0.000280 -16.588500 -2.192510 6.469440 -0.000001 179.883000 13.735700 -179.812000 -39.081100 -0.002282 -0.040193 -0.016315 0.055963 19.335900 -40.985400 0.000008 0.000006 4.217490 6.793900 -66.253400 -11.754300 -0.000006 -0.000006 -0.005816 -0.069157 -19.387600
0.000000 0.000000 0.000000 0.000000 0.000000 -0.000000 -0.924297 92.295400 -1.442270 88.179400 -0.751880 4.018750 15.735700 0.000005 -0.000001 83.891300 85.224300 -83.046500 8.984550 -0.406207 -0.000000 1.739900 -1.060240 1.704160 16.377300 -0.000001 -0.000001 2.329350 -2.588940 0.013869 6.456720 -0.000001 -0.000000 4.047450 -2.783700 -1.774670 12.994200 -0.242716 4.980390 -90.561400 1.891550 -73.466200 5.348090 -0.000007 -0.000001 -63.571500 35.350600 -18.345600 24.328600 0.000019 0.000005 -0.496905 -1.050600 -25.314600 22.291600 -0.000001 0.000005 3.044370 5.545490 -8.494720 12.994500 -0.242716 -4.980390 88.178200 6.051080 -73.209600 -5.348130 -0.000001 -0.000004 -64.756900 41.683500 -16.527000 -24.328900 0.000322 -0.000009 1.941780 6.707150 -16.195300 -22.291500 -0.000108 -0.000004 8.013920 5.429690 -3.928160 -2.192480 -6.469440 -0.000000 -175.633000 -5.962650 -2.860720 39.081100 -0.000007 -0.000012 -0.099908 0.236156 22.931300 40.985400 -0.000006 -0.000013 -0.196522 3.697940 -66.280200 11.754300 -0.000000 0.000003 -0.000025 -0.000308 -16.589600 -2.192510 6.469440 -0.000001 179.858000 13.813500 -179.723000 -39.081100 -0.002282 -0.040193 -0.017794 0.059929 19.409900 -40.985400 0.000008 0.000006 4.119650 6.710670 -66.251500 -11.754300 -0.000006 -0.000006 -0.005615 -0.067296 -19.311600
0.000000 0.000000 0.000000 0.000000 0.000000 -0.000000 -0.957668 92.290200 -1.514970 88.247000 -0.477420 4.158300 15.735700 0.000005 -0.000001 84.407300 85.179600 -83.550000 8.984550 -0.406207 -0.000000 1.837160 -0.983345 1.728800 16.377300 -0.000001 -0.000001 2.395490 -2.740380 -0.104172 6.456720 -0.000001 -0.000000 4.145740 -2.975790 -1.649720 12.994200 -0.242716 4.980390 -90.643000 2.175510 -73.530500 5.348090 -0.000007 -0.000001 -61.264900 31.154000 -20.650300 24.328600 0.000019 0.000005 -0.364469 -0.675821 -28.352000 22.291600 -0.000001 0.000005 3.484100 5.548060 -8.613790 12.994500 -0.242716 -4.980390 88.222200 5.919130 -73.249600 -5.348130 -0.000001 -0.000004 -64.887200 41.686400 -16.412500 -24.328900 0.000322 -0.000009 1.944240 6.717100 -16.192100 -22.291500 -0.000108 -0.000004 7.944300 5.431080 -3.975780 -2.192480 -6.469440 -0.000000 -175.677000 -5.854650 -2.822670 39.081100 -0.000007 -0.000012 -0.098241 0.231848 22.963800 40.985400 -0.000006 -0.000013 -0.176865 3.849530 -66.227300 11.754300 -0.000000 0.000003 -0.000019 -0.000241 -16.587000 -2.192510 6.469440 -0.000001 179.768000 13.978800 -179.666000 -39.081100 -0.002282 -0.040193 -0.021923 0.071205 19.521500 -40.985400 0.000008 0.000006 4.017170 6.607140 -66.260600 -11.754300 -0.000006 -0.000006 -0.005570 -0.066875 -19.294500
